<svg width="180" height="180" viewBox="0 0 180 180" fill="none" xmlns="http://www.w3.org/2000/svg">
<g clip-path="url(#clip0_5_8)">
<path d="M29.6 52.4125L18.3125 48.0125C17.7065 47.7772 17.1858 47.3642 16.8186 46.8277C16.4515 46.2912 16.255 45.6563 16.255 45.0063C16.255 44.3562 16.4515 43.7213 16.8186 43.1848C17.1858 42.6483 17.7065 42.2353 18.3125 42L29.6 37.6C34.4125 35.725 38.225 31.9125 40.1 27.1L44.5 15.8125C44.7353 15.2065 45.1483 14.6858 45.6848 14.3186C46.2213 13.9515 46.8562 13.755 47.5063 13.755C48.1563 13.755 48.7912 13.9515 49.3277 14.3186C49.8642 14.6858 50.2772 15.2065 50.5125 15.8125L54.9125 27.1C56.7875 31.9125 60.6 35.725 65.4125 37.6L76.7 42C77.306 42.2353 77.8267 42.6483 78.1939 43.1848C78.561 43.7213 78.7575 44.3562 78.7575 45.0063C78.7575 45.6563 78.561 46.2912 78.1939 46.8277C77.8267 47.3642 77.306 47.7772 76.7 48.0125L65.4125 52.4125C60.6 54.2875 56.7875 58.1 54.9125 62.9125L50.5125 74.2C50.2772 74.806 49.8642 75.3267 49.3277 75.6939C48.7912 76.061 48.1563 76.2575 47.5063 76.2575C46.8562 76.2575 46.2213 76.061 45.6848 75.6939C45.1483 75.3267 44.7353 74.806 44.5 74.2L40.1 62.9125C39.172 60.5308 37.7596 58.3678 35.9522 56.5603C34.1447 54.7529 31.9817 53.3405 29.6 52.4125Z" fill="url(#paint0_linear_5_8)"/>
<path d="M2.0875 19.95L6.6 21.7C7.55419 22.072 8.42044 22.6388 9.14355 23.364C9.86666 24.0893 10.4308 24.9572 10.8 25.9125L12.5625 30.425C12.6565 30.6668 12.8214 30.8746 13.0355 31.0211C13.2497 31.1676 13.5031 31.246 13.7625 31.246C14.0219 31.246 14.2753 31.1676 14.4895 31.0211C14.7036 30.8746 14.8685 30.6668 14.9625 30.425L16.725 25.9125C17.0957 24.9595 17.6604 24.094 18.3835 23.371C19.1065 22.6479 19.972 22.0832 20.925 21.7125L25.4375 19.9625C25.6783 19.8658 25.8845 19.6992 26.0298 19.4842C26.1751 19.2692 26.2528 19.0157 26.2528 18.7563C26.2528 18.4968 26.1751 18.2433 26.0298 18.0283C25.8845 17.8133 25.6783 17.6467 25.4375 17.55L20.9375 15.7875C19.9822 15.4183 19.1143 14.8542 18.389 14.1311C17.6638 13.4079 17.097 12.5417 16.725 11.5875L14.975 7.075C14.8832 6.82912 14.7185 6.61715 14.503 6.46749C14.2874 6.31783 14.0312 6.23763 13.7688 6.23763C13.5063 6.23763 13.2501 6.31783 13.0345 6.46749C12.819 6.61715 12.6543 6.82912 12.5625 7.075L10.8125 11.575C10.4419 12.5315 9.87586 13.4002 9.15052 14.1255C8.42518 14.8509 7.5565 15.4169 6.6 15.7875L2.1 17.5375C1.85925 17.6342 1.65295 17.8008 1.50766 18.0158C1.36237 18.2308 1.28473 18.4843 1.28473 18.7437C1.28473 19.0032 1.36237 19.2567 1.50766 19.4717C1.65295 19.6867 1.85925 19.8533 2.1 19.95H2.0875Z" fill="url(#paint1_linear_5_8)"/>
<path fill-rule="evenodd" clip-rule="evenodd" d="M91.25 106.263C84.3 106.263 77.2708 104.488 70.1625 100.938C68.093 99.9484 65.7179 99.8114 63.5485 100.556C61.379 101.301 59.5887 102.867 58.563 104.919C57.5372 106.971 57.358 109.343 58.0639 111.525C58.7699 113.708 60.3045 115.525 62.3375 116.587C71.9042 121.371 81.5417 123.762 91.25 123.762C100.958 123.762 110.596 121.371 120.162 116.587C121.211 116.086 122.149 115.381 122.922 114.514C123.695 113.646 124.288 112.633 124.665 111.534C125.043 110.434 125.197 109.271 125.12 108.111C125.043 106.952 124.735 105.819 124.215 104.78C123.696 103.74 122.974 102.815 122.093 102.057C121.211 101.3 120.188 100.725 119.082 100.368C117.977 100.01 116.811 99.8761 115.653 99.974C114.495 100.072 113.368 100.399 112.338 100.938C105.238 104.488 98.2083 106.263 91.25 106.263Z" fill="#FDFF92"/>
<path d="M129.375 155.488L149.475 162.275C150.517 162.625 151.45 162.438 152.275 161.713C153.1 160.979 153.404 160.075 153.188 159L149.113 138.688C148.5 135.395 149.142 131.993 150.913 129.15C158.138 117.2 162.513 104.337 162.513 90C162.513 69.975 155.433 52.8875 141.275 38.7375C127.117 24.5708 110.029 17.4875 90.0125 17.4875C85.0625 17.4875 80.1875 17.9833 75.3875 18.975C74.2614 19.2048 73.1011 19.2106 71.9728 18.992C70.8445 18.7734 69.7703 18.3346 68.8115 17.7009C66.8752 16.4209 65.5266 14.4242 65.0625 12.15C64.5984 9.87577 65.0567 7.51031 66.3366 5.574C67.6166 3.63768 69.6133 2.28913 71.8875 1.825C77.8292 0.608334 83.8708 0 90.0125 0C114.863 0 136.075 8.7875 153.65 26.3625C171.225 43.9375 180.012 65.1458 180.012 89.9875C180.012 107.121 175.563 122.858 166.663 137.2L170.337 155.562C171.879 163.238 169.713 169.667 163.838 174.85C157.954 180.017 151.3 181.35 143.875 178.85L125.612 172.688C114.337 177.562 102.471 180 90.0125 180C65.1542 180 43.9417 171.213 26.375 153.638C8.79167 136.063 0 114.85 0 90C0 83.8667 0.612499 77.825 1.8375 71.875C2.30163 69.6008 3.65018 67.6041 5.5865 66.3241C7.52281 65.0442 9.88827 64.5859 12.1625 65.05C14.4367 65.5141 16.4334 66.8627 17.7134 68.799C18.9933 70.7353 19.4516 73.1008 18.9875 75.375C18.0042 80.175 17.5125 85.05 17.5125 90C17.5125 110.017 24.5917 127.104 38.75 141.262C52.9 155.421 69.9833 162.5 90 162.5C100.587 162.5 110.438 160 119.963 155.938C122.963 154.663 126.288 154.438 129.375 155.488Z" fill="url(#paint2_linear_5_8)"/>
</g>
<defs>
<linearGradient id="paint0_linear_5_8" x1="90.0062" y1="0" x2="90.0062" y2="180.073" gradientUnits="userSpaceOnUse">
<stop stop-color="#B2D8FF"/>
<stop offset="1" stop-color="#00FFD0"/>
</linearGradient>
<linearGradient id="paint1_linear_5_8" x1="90.0062" y1="0" x2="90.0062" y2="180.073" gradientUnits="userSpaceOnUse">
<stop stop-color="#F7FFE0"/>
<stop offset="1" stop-color="#00FFD9"/>
</linearGradient>
<linearGradient id="paint2_linear_5_8" x1="90.0062" y1="0" x2="90.0062" y2="180.073" gradientUnits="userSpaceOnUse">
<stop stop-color="#FFC4C4"/>
<stop offset="1" stop-color="#62DDEA"/>
</linearGradient>
<clipPath id="clip0_5_8">
<rect width="180" height="180" fill="white"/>
</clipPath>
</defs>
</svg>
